<svg width="806" height="433" viewBox="0 0 806 433" fill="none" xmlns="http://www.w3.org/2000/svg">
<path d="M306.421 355.674H326.321L316.371 318.792L306.421 355.674Z" fill="#F61266"/>
<path d="M493.472 355.674C493.472 367.225 489.755 377.003 482.321 385.008C475.002 393.014 464.023 398.103 449.385 400.276V432.869H418.507V400.276C403.868 398.103 392.832 393.014 385.399 385.008C378.08 377.003 374.42 367.225 374.42 355.674C374.42 344.238 378.08 334.574 385.399 326.683C392.832 318.678 403.868 313.589 418.507 311.416V278.479H449.385V311.416C464.023 313.589 475.002 318.678 482.321 326.683C489.755 334.574 493.472 344.238 493.472 355.674ZM418.507 340.922C410.158 343.209 405.984 348.126 405.984 355.674C405.984 363.222 410.158 368.14 418.507 370.427V340.922ZM449.385 370.427C457.733 368.14 461.908 363.222 461.908 355.674C461.908 348.126 457.733 343.209 449.385 340.922V370.427Z" fill="#F61266"/>
<path d="M559.425 312.788H584.127V398.56H553.249V364.252L528.204 398.56H503.502V312.788H534.38V347.097L559.425 312.788Z" fill="#F61266"/>
<path d="M684.447 312.788H716.183V398.56H684.447H641.561H608.625H597.817V312.788H629.553V368.369H641.561V312.788H672.439V368.369H684.447V312.788Z" fill="#F61266"/>
<path d="M767.909 310.387C778.202 310.387 787.008 313.36 794.327 319.307C801.646 325.254 805.306 333.66 805.306 344.524V398.56H775.114V393.586C769.968 398.503 763.506 400.962 755.729 400.962C746.923 400.962 739.833 398.675 734.458 394.1C729.083 389.411 726.395 382.778 726.395 374.201C726.395 365.624 729.197 359.048 734.801 354.474C740.405 349.785 747.61 347.44 756.416 347.44C763.506 347.44 769.739 349.099 775.114 352.415V344.524C775.114 339.95 772.712 337.662 767.909 337.662C763.106 337.662 760.704 339.664 760.704 343.666H730.512C730.512 333.145 734.172 324.968 741.491 319.135C748.925 313.303 757.731 310.387 767.909 310.387ZM766.537 381.406C769.053 381.406 771.111 380.777 772.712 379.519C774.313 378.147 775.114 376.374 775.114 374.201C775.114 371.914 774.313 370.141 772.712 368.883C771.111 367.625 769.053 366.996 766.537 366.996C763.906 366.996 761.848 367.683 760.361 369.055C758.874 370.313 758.131 372.028 758.131 374.201C758.131 376.374 758.874 378.147 760.361 379.519C761.848 380.777 763.906 381.406 766.537 381.406Z" fill="#F61266"/>
<path fill-rule="evenodd" clip-rule="evenodd" d="M369.767 410.271L185.136 5.28174L0.505859 410.271H74.3711L185.136 162.207L295.901 410.271H369.767Z" fill="#F61266"/>
<rect x="310.821" y="360.646" width="251.369" height="56.3067" transform="rotate(-180 310.821 360.646)" fill="#F61266"/>
<path d="M288.009 103.61C288.009 160.425 241.951 145.198 185.136 145.198C128.321 145.198 82.2627 160.425 82.2627 103.61C82.2627 46.7943 128.321 0.736328 185.136 0.736328C241.951 0.736328 288.009 46.7943 288.009 103.61Z" fill="#F61266"/>
<rect x="16.1895" y="106.098" width="337.894" height="48.2242" rx="24.1121" fill="#F61266"/>
</svg>
