<svg width="243" height="169" viewBox="0 0 243 169" fill="none" xmlns="http://www.w3.org/2000/svg">
<path d="M5.60229 125.681V108.939C5.60229 103.381 10.4968 99.0931 16.0071 99.825L21.3472 79.861C28.4218 53.4127 46.3582 30.843 70.3933 17.7329C90.8434 6.57841 114.821 2.76298 137.685 7.21958L145.642 8.77051C171.263 13.7644 193.915 28.5782 208.761 50.0479L215.83 60.2705C226.026 75.0153 231.488 92.5165 231.488 110.443C234.996 110.443 237.841 113.288 237.841 116.796V134.317C237.841 147.041 227.862 157.529 215.153 158.161L108.656 163.459C100.225 163.879 91.7747 163.209 83.5148 161.467L24.537 149.026C13.5007 146.698 5.60229 136.96 5.60229 125.681Z" fill="#AD48FC"/>
<path d="M16.0071 99.825L95.9564 110.443H231.488M16.0071 99.825V99.825C10.4968 99.0931 5.60229 103.381 5.60229 108.939V125.681C5.60229 136.96 13.5007 146.698 24.537 149.026L83.5148 161.467C91.7747 163.209 100.225 163.879 108.656 163.459L215.153 158.161C227.862 157.529 237.841 147.041 237.841 134.317V116.796C237.841 113.288 234.996 110.443 231.488 110.443V110.443M16.0071 99.825L21.3472 79.861C28.4218 53.4127 46.3582 30.843 70.3933 17.7329V17.7329C90.8434 6.57841 114.821 2.76298 137.685 7.21958L145.642 8.77051C171.263 13.7644 193.915 28.5782 208.761 50.0479L215.83 60.2705C226.026 75.0153 231.488 92.5165 231.488 110.443V110.443" stroke="#202020" stroke-width="10"/>
</svg>
