<svg width="358" height="174" viewBox="0 0 358 174" fill="none" xmlns="http://www.w3.org/2000/svg">
<path d="M16.2142 106.992L111.511 116.699M16.2142 106.992L51.5094 166.112L111.511 116.699M16.2142 106.992L44.4503 91.1093M111.511 116.699L175.043 123.757M175.043 123.757L222.691 166.112L272.104 123.757M175.043 123.757H272.104M272.104 123.757L292.399 79.6384M222.691 79.6384L252.692 106.992L292.399 79.6384M222.691 79.6384H292.399M222.691 79.6384L145.042 73.0499M292.399 79.6384L316.223 34.637L355.048 59.3436M145.042 67.2851L111.511 24.9311H145.042H191.808L145.042 67.2851ZM145.042 67.2851V73.0499M7.39038 59.3436L44.4503 91.1093M7.39038 59.3436L77.0983 67.2851M7.39038 59.3436L51.5094 7.2832L77.0983 24.9311M44.4503 91.1093L77.0983 67.2851M77.0983 67.2851L145.042 73.0499" stroke="#AD48FC" stroke-width="10"/>
<path d="M107.654 118.137L20.4547 107.511L51.0837 165.018L107.654 118.137Z" fill="#AD48FC"/>
<path d="M266.112 126.576H181.726L223.607 165.018L266.112 126.576Z" fill="#AD48FC"/>
<path d="M252.36 104.698L227.357 80.6321H286.115L252.36 104.698Z" fill="#AD48FC"/>
<path d="M42.3325 89.071L15.454 62.1925L73.8993 69.0682L42.3325 89.071Z" fill="#AD48FC"/>
<path d="M190.477 26.25H114.53L143.909 66.5675L190.477 26.25Z" fill="#AD48FC"/>
</svg>
