<svg width="828" height="632" viewBox="0 0 828 632" fill="none" xmlns="http://www.w3.org/2000/svg">
<g opacity="0.9">
<path d="M164.793 598.371V544.449L132.114 598.371H105.97V483.991H138.65V537.913L171.329 483.991H197.473V598.371H164.793Z" fill="#00E9F6"/>
<path d="M294.558 564.057C293.469 574.623 288.893 583.392 280.832 590.364C272.771 597.227 263.24 600.658 252.238 600.658C239.71 600.658 229.307 596.573 221.028 588.403C212.749 580.124 208.61 569.83 208.61 557.521C208.61 545.211 212.749 534.972 221.028 526.802C229.307 518.523 239.71 514.383 252.238 514.383C263.24 514.383 272.771 517.869 280.832 524.841C288.893 531.704 293.469 540.418 294.558 550.985H263.349C262.695 548.697 261.333 546.9 259.264 545.593C257.303 544.177 254.961 543.469 252.238 543.469C248.425 543.469 245.211 544.83 242.597 547.554C240.092 550.168 238.839 553.49 238.839 557.521C238.839 561.551 240.092 564.928 242.597 567.652C245.211 570.266 248.425 571.573 252.238 571.573C254.961 571.573 257.357 570.92 259.427 569.612C261.497 568.196 262.858 566.344 263.512 564.057H294.558Z" fill="#00E9F6"/>
<path d="M363.994 516.671V545.429H345.039V598.371H314.647V545.429H295.366V516.671H345.039H363.994Z" fill="#00E9F6"/>
<path d="M513.219 514.383C524.33 514.383 533.59 518.523 540.997 526.802C548.513 534.972 552.272 545.211 552.272 557.521C552.272 569.83 548.513 580.124 540.997 588.403C533.59 596.573 524.33 600.658 513.219 600.658C504.831 600.658 498.078 598.425 492.958 593.959V631.05H462.729V516.671H492.958V521.083C498.078 516.617 504.831 514.383 513.219 514.383ZM496.879 568.142C499.603 570.865 503.143 572.227 507.5 572.227C511.858 572.227 515.343 570.865 517.958 568.142C520.681 565.418 522.043 561.878 522.043 557.521C522.043 553.164 520.681 549.623 517.958 546.9C515.343 544.177 511.858 542.815 507.5 542.815C503.143 542.815 499.603 544.177 496.879 546.9C494.265 549.623 492.958 553.164 492.958 557.521C492.958 561.878 494.265 565.418 496.879 568.142Z" fill="#00E9F6"/>
<path d="M615.09 516.671H638.619V598.371H609.207V565.691L585.351 598.371H561.822V516.671H591.233V549.351L615.09 516.671Z" fill="#00E9F6"/>
<path d="M727.803 516.671V598.371H697.574V575.495H694.797L679.437 598.371H645.123L665.711 570.429C656.997 564.983 652.64 557.14 652.64 546.9C652.64 537.532 655.472 530.179 661.136 524.841C666.91 519.394 674.753 516.671 684.666 516.671H727.803ZM688.424 541.181C684.176 541.181 682.051 543.087 682.051 546.9C682.051 550.713 684.176 552.619 688.424 552.619H697.574V541.181H688.424Z" fill="#00E9F6"/>
</g>
<circle cx="144.652" cy="144.652" r="144.652" transform="matrix(1 0 0 -1 269.234 444.669)" fill="#07D9E4"/>
<circle cx="76.1337" cy="76.1337" r="76.1337" transform="matrix(1 0 0 -1 0.692383 376.149)" fill="#07D9E4"/>
<circle cx="76.1337" cy="76.1337" r="76.1337" transform="matrix(1 0 0 -1 674.812 376.149)" fill="#07D9E4"/>
<circle cx="413.886" cy="557.52" r="41.9565" fill="#07D9E4"/>
<circle cx="413.886" cy="42.5122" r="41.9565" fill="#07D9E4"/>
<path fill-rule="evenodd" clip-rule="evenodd" d="M624.324 180.965L808.475 319.11L774.352 344.707L590.202 206.563L406.052 344.707L371.929 319.11L556.079 180.965L556.074 180.961L590.196 155.363L590.202 155.368L590.208 155.363L624.33 180.961L624.324 180.965Z" fill="#07D9E4"/>
<path fill-rule="evenodd" clip-rule="evenodd" d="M271.693 419.066L455.843 280.922L421.72 255.324L237.57 393.468L53.4198 255.324L19.2973 280.922L203.448 419.066L203.442 419.07L237.564 444.668L237.57 444.664L237.576 444.668L271.698 419.07L271.693 419.066Z" fill="#07D9E4"/>
<rect width="30.8523" height="101.007" transform="matrix(1 0 0 -1 398.461 534.494)" fill="#07D9E4"/>
<rect width="30.8523" height="101.007" transform="matrix(1 0 0 -1 398.461 172.627)" fill="#07D9E4"/>
</svg>
