<svg width="402" height="280" viewBox="0 0 402 280" fill="none" xmlns="http://www.w3.org/2000/svg">
<path d="M17.6017 176.145L82.5675 83.708C82.6618 83.5738 82.7878 83.4648 82.9342 83.3907L130.434 59.3594L137.347 30.1112C137.448 29.6848 137.815 29.3736 138.252 29.3436L229.205 23.1067C229.549 23.0831 229.881 23.2385 230.084 23.5179L242.777 41.0486L254.646 46.8077L317.44 77.4386L385.532 109.039C386.137 109.32 386.303 110.103 385.864 110.605L360.43 139.672C360.139 140.005 359.665 140.107 359.263 139.924L292.714 109.675C292.607 109.626 292.492 109.597 292.374 109.588L261.026 107.285C260.084 107.216 259.58 108.371 260.272 109.014L308.128 153.519C308.209 153.595 308.277 153.683 308.329 153.78L340.003 212.981C340.238 213.42 340.115 213.965 339.713 214.259L295.666 246.561C295.093 246.981 294.277 246.686 294.105 245.997L276.945 177.569C276.886 177.334 276.744 177.128 276.544 176.99L244.447 154.788C243.764 154.316 242.837 154.832 242.879 155.661L246.903 235.422C246.932 235.995 246.474 236.475 245.9 236.473L121.416 235.956C120.804 235.953 120.337 235.406 120.432 234.801L141.731 98.4193C141.865 97.5637 140.922 96.9543 140.196 97.4275L102.709 121.889C102.592 121.965 102.493 122.064 102.417 122.181L57.3557 191.481C57.1003 191.874 56.6066 192.037 56.1677 191.873L18.0702 177.657C17.4566 177.428 17.2251 176.681 17.6017 176.145Z" fill="#AD48FC"/>
<path d="M242.777 41.0486L254.646 46.8077L317.44 77.4386L385.532 109.039C386.137 109.32 386.303 110.103 385.864 110.605L360.43 139.672C360.139 140.005 359.665 140.107 359.263 139.924L292.714 109.675C292.607 109.626 292.492 109.597 292.374 109.588L261.026 107.285C260.084 107.216 259.58 108.371 260.272 109.014L308.128 153.519C308.209 153.595 308.277 153.683 308.329 153.78L340.003 212.981C340.238 213.42 340.115 213.965 339.713 214.259L295.666 246.561C295.093 246.981 294.277 246.686 294.105 245.997L276.945 177.569C276.886 177.334 276.744 177.128 276.544 176.99L244.447 154.788C243.764 154.316 242.837 154.832 242.879 155.661L246.903 235.422C246.932 235.995 246.474 236.475 245.9 236.473L121.416 235.956C120.804 235.953 120.337 235.406 120.432 234.801L141.731 98.4192C141.865 97.5637 140.922 96.9543 140.196 97.4275L102.709 121.889C102.592 121.965 102.493 122.064 102.417 122.181L57.3557 191.481C57.1003 191.874 56.6066 192.037 56.1677 191.873L18.0702 177.657C17.4566 177.428 17.2251 176.681 17.6017 176.145L82.5675 83.708C82.6618 83.5738 82.7878 83.4648 82.9342 83.3907L130.434 59.3594M242.777 41.0486L166.866 41.0486C166.709 41.0486 166.554 41.0855 166.414 41.1563L130.434 59.3594M242.777 41.0486L230.084 23.5179C229.881 23.2385 229.549 23.0831 229.205 23.1067L138.252 29.3436C137.815 29.3736 137.448 29.6848 137.347 30.1112L130.434 59.3594" stroke="#202020" stroke-width="10"/>
<path d="M166.969 44.0664L160.663 86.3555" stroke="#202020" stroke-width="5" stroke-linecap="round"/>
<path d="M221.985 44.0371L228.088 86.356" stroke="#202020" stroke-width="5" stroke-linecap="round"/>
</svg>
