<svg width="993" height="600" viewBox="0 0 993 600" fill="none" xmlns="http://www.w3.org/2000/svg">
<path d="M438.604 217.331H471.119V331.134H438.604V288.377H414.218V331.134H381.703V143.258H414.218V256.837H438.604V217.331Z" fill="#5CD049"/>
<path d="M525.971 333.41C513.832 333.41 503.481 329.291 494.919 321.054C486.465 312.817 482.238 302.629 482.238 290.49C482.238 278.351 486.465 268.163 494.919 259.926C503.373 251.689 513.723 247.57 525.971 247.57C538.218 247.57 548.568 251.689 557.022 259.926C565.476 268.163 569.703 278.351 569.703 290.49C569.703 302.629 565.476 312.817 557.022 321.054C548.568 329.291 538.218 333.41 525.971 333.41ZM516.053 300.895C518.655 303.496 521.96 304.797 525.971 304.797C529.981 304.797 533.232 303.496 535.725 300.895C538.326 298.185 539.627 294.717 539.627 290.49C539.627 286.263 538.326 282.849 535.725 280.248C533.232 277.538 529.981 276.183 525.971 276.183C521.96 276.183 518.655 277.538 516.053 280.248C513.561 282.849 512.314 286.263 512.314 290.49C512.314 294.717 513.561 298.185 516.053 300.895Z" fill="#5CD049"/>
<path d="M644.198 283.012C648.317 285.288 651.514 288.431 653.79 292.441C656.066 296.343 657.204 300.678 657.204 305.447C657.204 312.925 654.657 319.103 649.563 323.98C644.577 328.749 637.37 331.134 627.941 331.134H579.168V299.919V249.846H608.432H622.413C630.217 249.846 636.503 251.96 641.272 256.187C646.04 260.305 648.425 265.454 648.425 271.631C648.425 275.75 647.016 279.543 644.198 283.012ZM608.432 270.656V279.435H620.137C620.57 278.568 620.787 277.43 620.787 276.021C620.787 272.444 618.891 270.656 615.097 270.656H608.432ZM621.438 309.674C625.123 309.674 626.965 307.994 626.965 304.634C626.965 301.491 625.123 299.919 621.438 299.919H608.432V309.674H621.438Z" fill="#5CD049"/>
<path d="M704.739 333.41C692.6 333.41 682.25 329.291 673.688 321.054C665.234 312.817 661.007 302.629 661.007 290.49C661.007 278.351 665.234 268.163 673.688 259.926C682.141 251.689 692.492 247.57 704.739 247.57C716.987 247.57 727.337 251.689 735.791 259.926C744.245 268.163 748.472 278.351 748.472 290.49C748.472 302.629 744.245 312.817 735.791 321.054C727.337 329.291 716.987 333.41 704.739 333.41ZM694.822 300.895C697.423 303.496 700.729 304.797 704.739 304.797C708.749 304.797 712.001 303.496 714.494 300.895C717.095 298.185 718.396 294.717 718.396 290.49C718.396 286.263 717.095 282.849 714.494 280.248C712.001 277.538 708.749 276.183 704.739 276.183C700.729 276.183 697.423 277.538 694.822 280.248C692.329 282.849 691.083 286.263 691.083 290.49C691.083 294.717 692.329 298.185 694.822 300.895Z" fill="#5CD049"/>
<path d="M839.875 296.993C838.791 307.506 834.239 316.231 826.218 323.168C818.198 329.996 808.714 333.41 797.768 333.41C785.304 333.41 774.953 329.345 766.716 321.217C758.479 312.98 754.36 302.737 754.36 290.49C754.36 278.243 758.479 268.055 766.716 259.926C774.953 251.689 785.304 247.57 797.768 247.57C808.714 247.57 818.198 251.039 826.218 257.975C834.239 264.803 838.791 273.474 839.875 283.987H808.823C808.172 281.711 806.818 279.923 804.758 278.622C802.807 277.213 800.477 276.509 797.768 276.509C793.974 276.509 790.777 277.863 788.176 280.573C785.683 283.174 784.437 286.48 784.437 290.49C784.437 294.5 785.683 297.86 788.176 300.57C790.777 303.171 793.974 304.471 797.768 304.471C800.477 304.471 802.862 303.821 804.921 302.521C806.98 301.112 808.335 299.269 808.985 296.993H839.875Z" fill="#5CD049"/>
<path d="M908.96 249.846V278.46H890.101V331.134H859.862V278.46H840.679V249.846H890.101H908.96Z" fill="#5CD049"/>
<path d="M969.224 249.846H992.635V331.134H963.372V298.619L939.636 331.134H916.225V249.846H945.489V282.361L969.224 249.846Z" fill="#5CD049"/>
<path fill-rule="evenodd" clip-rule="evenodd" d="M381.703 63.8922C381.703 28.7943 410.155 0.341797 445.253 0.341797H475.347C510.445 0.341797 538.898 28.7943 538.898 63.8922V148.592H381.703L381.703 127.443H224.508L224.508 260.076H197.764V367.087C251.012 378.192 291.014 425.394 291.014 481.939V599.263H0.807617V481.939C0.807617 425.394 40.8091 378.192 94.0576 367.087V260.076H67.3132V145.014C67.3132 101.606 102.503 66.417 145.911 66.417H224.508H381.703L381.703 63.8922Z" fill="#5CD049"/>
</svg>
