<svg width="1087" height="474" viewBox="0 0 1087 474" fill="none" xmlns="http://www.w3.org/2000/svg">
<path fill-rule="evenodd" clip-rule="evenodd" d="M292.573 9.19741C221.636 28.205 179.172 69.7463 154.267 114.912C143.827 111.967 132.813 110.391 121.431 110.391C54.7849 110.391 0.757812 164.418 0.757812 231.064C0.757812 297.709 54.7849 351.736 121.431 351.736C188.076 351.736 242.103 297.709 242.103 231.064C242.103 200.486 230.73 172.564 211.983 151.299C229.33 117.978 259.042 88.7235 310.208 75.0135C357.958 62.219 396.295 70.4909 426.952 88.0563C385.525 121.906 359.079 173.399 359.079 231.069C359.079 333.015 441.722 415.659 543.668 415.659C556.934 415.659 569.873 414.259 582.345 411.6C629.293 455.217 700.628 491.02 796.345 465.373C872.836 444.877 916.221 398.181 940.183 348.992C948.473 350.792 957.081 351.741 965.911 351.741C1032.56 351.741 1086.58 297.714 1086.58 231.068C1086.58 164.422 1032.56 110.395 965.911 110.395C899.265 110.395 845.238 164.422 845.238 231.068C845.238 264.298 858.67 294.392 880.401 316.215C863.645 352.418 833.46 384.887 778.71 399.557C725.73 413.753 684.337 402.014 652.166 380.422C698.281 346.864 728.257 292.467 728.257 231.069C728.257 129.123 645.614 46.4799 543.668 46.4799C526.872 46.4799 510.6 48.7231 495.136 52.9263C448.342 14.1392 380.82 -14.4484 292.573 9.19741Z" fill="#FCBF48"/>
</svg>
