<svg width="350" height="153" viewBox="0 0 350 153" fill="none" xmlns="http://www.w3.org/2000/svg">
<path fill-rule="evenodd" clip-rule="evenodd" d="M255.869 149.653C278.7 143.535 292.367 130.166 300.382 115.629C303.742 116.577 307.287 117.085 310.951 117.085C332.401 117.085 349.789 99.6963 349.789 78.2467C349.789 56.797 332.401 39.4086 310.951 39.4086C289.501 39.4086 272.113 56.797 272.113 78.2466C272.113 88.0878 275.773 97.0741 281.807 103.918C276.224 114.642 266.661 124.058 250.193 128.47C234.826 132.588 222.488 129.926 212.621 124.273C225.953 113.378 234.465 96.8058 234.465 78.2453C234.465 45.4344 207.866 18.8359 175.056 18.8359C170.787 18.8359 166.623 19.2862 162.609 20.1418C147.499 6.1033 124.54 -5.42093 93.7324 2.83386C69.114 9.43033 55.1508 24.4593 47.4385 40.2907C44.7704 39.7113 42.0001 39.4061 39.1584 39.4061C17.7088 39.4061 0.320382 56.7945 0.32038 78.2442C0.320378 99.6939 17.7087 117.082 39.1584 117.082C60.6081 117.082 77.9965 99.6939 77.9965 78.2442C77.9965 67.549 73.6734 57.8635 66.6793 50.8399C72.0722 39.1879 81.7872 28.7381 99.4082 24.0165C116.46 19.4474 129.783 23.2259 140.137 30.1757C125.294 40.9763 115.646 58.4841 115.646 78.2452C115.646 111.056 142.245 137.655 175.056 137.655C180.462 137.655 185.699 136.933 190.676 135.58C205.737 148.063 227.468 157.263 255.869 149.653Z" fill="#00E9F6"/>
</svg>
