<svg width="1031" height="538" viewBox="0 0 1031 538" fill="none" xmlns="http://www.w3.org/2000/svg">
<path d="M191.427 378.872C174.008 378.872 159.566 373.084 148.101 361.509C136.635 349.933 130.902 335.546 130.902 318.347C130.902 301.149 136.635 286.762 148.101 275.186C159.566 263.61 174.008 257.822 191.427 257.822C206.2 257.822 219.044 262.453 229.958 271.713C240.983 280.864 247.377 292.495 249.141 306.606H214.91C213.697 301.755 210.886 297.842 206.476 294.865C202.176 291.778 197.16 290.235 191.427 290.235C183.269 290.235 176.654 292.88 171.583 298.172C166.512 303.464 163.976 310.189 163.976 318.347C163.976 326.505 166.512 333.231 171.583 338.522C176.654 343.814 183.269 346.46 191.427 346.46C197.27 346.46 202.342 344.972 206.641 341.995C210.941 338.908 213.697 334.884 214.91 329.923H249.306C247.432 344.145 240.983 355.886 229.958 365.147C219.044 374.297 206.2 378.872 191.427 378.872Z" fill="#AD48FC"/>
<path d="M312.95 293.542H347.678L320.226 373.746C315.927 386.424 309.092 395.63 299.721 401.362C290.46 407.205 279.38 409.851 266.482 409.3V380.361C272.104 380.361 276.404 379.92 279.38 379.038C282.357 378.266 284.727 376.778 286.491 374.573L253.417 293.542H288.145L302.863 337.695L312.95 293.542Z" fill="#AD48FC"/>
<path d="M420.453 327.277C424.642 329.592 427.894 332.79 430.21 336.869C432.525 340.837 433.682 345.247 433.682 350.098C433.682 357.705 431.092 363.989 425.91 368.95C420.839 373.801 413.507 376.226 403.916 376.226H354.305V344.476V293.542H384.072H398.293C406.231 293.542 412.625 295.692 417.476 299.991C422.327 304.181 424.753 309.417 424.753 315.701C424.753 319.891 423.319 323.749 420.453 327.277ZM384.072 314.709V323.639H395.978C396.419 322.757 396.64 321.6 396.64 320.166C396.64 316.528 394.71 314.709 390.852 314.709H384.072ZM397.301 354.398C401.05 354.398 402.924 352.689 402.924 349.271C402.924 346.074 401.05 344.476 397.301 344.476H384.072V354.398H397.301Z" fill="#AD48FC"/>
<path d="M468.144 345.302C470.79 352.468 475.861 356.051 483.358 356.051C485.563 356.051 487.602 355.666 489.476 354.894C491.35 354.122 492.563 353.13 493.114 351.917H520.731C518.195 360.957 513.345 367.682 506.179 372.092C499.123 376.392 490.799 378.542 481.208 378.542C468.199 378.542 457.67 374.407 449.622 366.139C441.574 357.87 437.55 347.452 437.55 334.884C437.55 322.426 441.685 312.063 449.953 303.795C458.222 295.416 468.86 291.227 481.869 291.227C493.886 291.227 503.808 295.361 511.636 303.629C519.573 311.898 523.542 322.206 523.542 334.553C523.542 338.192 523.101 341.775 522.219 345.302H468.144ZM467.813 325.624H495.099C493.445 319.009 489.146 315.701 482.2 315.701C474.814 315.701 470.018 319.009 467.813 325.624Z" fill="#AD48FC"/>
<path d="M578.555 293.542H609.148V439.237H578.555V349.437H563.671V376.226H533.078V159.067H563.671V320.332H578.555V293.542Z" fill="#AD48FC"/>
<path d="M676.294 293.542H700.107V376.226H670.341V343.153L646.197 376.226H622.384V293.542H652.15V326.616L676.294 293.542Z" fill="#AD48FC"/>
<path d="M764.403 291.227C775.648 291.227 785.019 295.416 792.516 303.795C800.123 312.063 803.926 322.426 803.926 334.884C803.926 347.342 800.123 357.76 792.516 366.139C785.019 374.407 775.648 378.542 764.403 378.542C755.914 378.542 749.079 376.282 743.898 371.761V409.3H713.304V293.542H743.898V298.007C749.079 293.487 755.914 291.227 764.403 291.227ZM747.866 345.633C750.623 348.389 754.206 349.767 758.615 349.767C763.025 349.767 766.553 348.389 769.199 345.633C771.955 342.877 773.333 339.294 773.333 334.884C773.333 330.474 771.955 326.891 769.199 324.135C766.553 321.379 763.025 320.001 758.615 320.001C754.206 320.001 750.623 321.379 747.866 324.135C745.221 326.891 743.898 330.474 743.898 334.884C743.898 339.294 745.221 342.877 747.866 345.633Z" fill="#AD48FC"/>
<path d="M857.249 315.04C867.281 315.04 875.164 317.796 880.897 323.308C886.74 328.71 889.661 336.152 889.661 345.633C889.661 355.114 886.74 362.611 880.897 368.123C875.164 373.525 867.281 376.226 857.249 376.226H820.206H813.592V293.542H844.185V315.04H857.249ZM894.622 290.235H925.216V376.226H894.622V290.235ZM853.445 351.421C857.745 351.421 859.895 349.492 859.895 345.633C859.895 341.775 857.745 339.845 853.445 339.845H844.185V351.421H853.445Z" fill="#AD48FC"/>
<path d="M528.487 0.536606L698.743 170.792L358.231 170.792L528.487 0.536606Z" fill="#AD48FC"/>
<path d="M105.37 432.43L0.731445 537.068L210.009 537.068L105.37 432.43Z" fill="#AD48FC"/>
<path d="M632.697 432.43L528.059 537.068L737.336 537.068L632.697 432.43Z" fill="#AD48FC"/>
<path d="M423.849 432.43L319.21 537.068L528.488 537.068L423.849 432.43Z" fill="#AD48FC"/>
<path d="M925.743 432.43L821.104 537.068L1030.38 537.068L925.743 432.43Z" fill="#AD48FC"/>
<path d="M210.009 537.068L105.37 432.43L314.648 432.43L210.009 537.068Z" fill="#AD48FC"/>
<path d="M821.105 537.068L716.466 432.43L925.743 432.43L821.105 537.068Z" fill="#AD48FC"/>
<path d="M528.059 537.068L423.42 432.43L632.698 432.43L528.059 537.068Z" fill="#AD48FC"/>
</svg>
